<svg xmlns="http://www.w3.org/2000/svg" viewBox="0 0 218.39 96.14"><defs><style>.cls-1{font-size:47px;}.cls-1,.cls-2,.cls-3{fill:#fff;stroke:#fff;stroke-miterlimit:10;}.cls-1,.cls-2{font-family:Windlass, Windlass;}.cls-2{font-size:32px;}</style></defs><title>Ativo 2</title><g id="Camada_2" data-name="Camada 2"><g id="Camada_1-2" data-name="Camada 1"><text class="cls-1" transform="translate(0.5 42.92)">Alura</text><text class="cls-2" transform="translate(125.23 84.25) rotate(-16.96)">Quiz .</text><path class="cls-3" d="M205.31,26.79c1.19,5,5,12.79,1,15.89l-.06,0L198.9,25.37l-2.14.9,7.33,17.33c-5,.72-8-7.47-10.72-11.77s-7-.74-7-.74l.33.77c3.21-1.85,5.06,5.84,9.21,10.2a8.94,8.94,0,0,0,8.56,2.38l3.38,8,2.14-.9-3.38-8a9,9,0,0,0,4.31-7.84c-.24-6-4.46-12.7-.9-13.72l-.33-.77S204.12,21.83,205.31,26.79Z"/></g></g></svg>